<?xml version="1.0" standalone="no"?>
<!DOCTYPE svg PUBLIC "-//W3C//DTD SVG 20010904//EN"
 "http://www.w3.org/TR/2001/REC-SVG-20010904/DTD/svg10.dtd">
<svg version="1.0" xmlns="http://www.w3.org/2000/svg"
 width="512.000000pt" height="512.000000pt" viewBox="0 0 512.000000 512.000000"
 preserveAspectRatio="xMidYMid meet">

<g transform="translate(0.000000,512.000000) scale(0.100000,-0.100000)"
fill="#000000" stroke="none">
<path d="M2370 5111 c-8 -4 -58 -11 -110 -15 -161 -11 -336 -50 -550 -122
-192 -65 -458 -202 -621 -321 -158 -114 -192 -144 -335 -287 -157 -157 -280
-311 -379 -475 -57 -94 -165 -301 -165 -317 0 -5 -7 -21 -14 -36 -15 -29 -50
-128 -86 -243 -108 -347 -133 -765 -70 -1183 7 -42 16 -84 20 -92 5 -8 10 -31
12 -50 3 -19 7 -42 10 -50 3 -8 16 -49 28 -90 43 -152 60 -195 141 -370 81
-173 151 -286 308 -496 68 -91 335 -352 444 -435 168 -127 420 -271 595 -340
12 -5 32 -13 45 -18 107 -44 292 -96 457 -127 259 -50 658 -50 921 0 162 31
348 82 457 127 12 5 32 13 45 18 151 60 381 185 508 278 158 114 192 144 335
287 157 157 280 311 379 475 57 94 165 301 165 317 0 5 7 21 14 36 15 29 50
128 86 243 108 347 133 765 70 1183 -7 42 -16 84 -20 92 -5 8 -10 31 -12 50
-3 19 -7 42 -10 50 -3 8 -16 49 -28 90 -22 80 -46 151 -61 188 -5 12 -13 32
-18 45 -5 12 -33 74 -62 137 -81 173 -151 286 -308 496 -68 91 -335 352 -444
435 -168 127 -420 271 -594 340 -13 5 -33 13 -45 18 -162 67 -428 130 -633
152 -132 14 -456 21 -475 10z m1038 -1602 c53 -6 101 -15 107 -20 5 -5 16 -9
25 -9 29 0 163 -72 225 -121 77 -60 139 -127 193 -206 42 -62 94 -165 107
-213 3 -14 10 -34 15 -45 50 -114 49 -431 -1 -589 -23 -71 -80 -199 -91 -204
-5 -2 -8 -9 -8 -14 0 -18 -74 -111 -142 -177 -74 -73 -173 -141 -243 -166 -27
-10 -54 -22 -60 -25 -19 -14 -141 -30 -221 -30 -86 0 -193 16 -209 31 -5 5
-15 9 -22 9 -49 0 -235 118 -304 193 -92 99 -200 283 -215 365 -4 20 -10 42
-15 48 -37 47 -36 490 1 539 4 6 10 24 14 40 4 17 14 44 21 60 8 17 21 47 29
69 65 159 277 362 441 420 28 10 59 22 71 28 16 8 77 17 172 27 7 0 56 -4 110
-10z m-1030 -348 c46 -23 74 -54 98 -106 16 -33 19 -64 19 -181 0 -149 -3
-164 -54 -233 -21 -30 -22 -35 -9 -45 9 -7 26 -30 39 -51 22 -37 24 -51 24
-190 0 -136 -2 -154 -22 -195 -30 -60 -62 -88 -117 -104 -58 -18 -49 -18 -98
0 -93 33 -138 108 -138 232 l0 80 35 4 c20 2 38 2 40 -1 3 -2 5 -37 5 -78 0
-59 4 -80 23 -108 46 -71 139 -58 181 27 23 44 22 237 0 281 -25 49 -44 66
-80 73 -31 6 -34 9 -34 43 0 33 4 37 43 53 68 29 87 76 87 216 0 119 -8 145
-54 184 -21 18 -92 24 -111 10 -6 -4 -21 -21 -33 -39 -18 -25 -22 -45 -22
-107 l0 -76 -40 0 -40 0 0 82 c0 67 4 90 26 134 29 60 36 67 90 94 50 25 95
25 142 1z m-1194 -32 c3 -17 6 -48 6 -69 0 -20 3 -40 8 -44 4 -4 17 -92 30
-194 43 -355 58 -467 65 -482 3 -8 8 -33 9 -54 2 -22 8 -41 14 -43 7 -2 15 43
23 129 7 73 16 138 20 143 3 6 14 73 23 150 9 77 26 212 37 300 11 88 20 168
21 178 0 14 9 17 45 17 43 0 58 -14 38 -34 -5 -4 -16 -71 -25 -149 -38 -314
-65 -513 -70 -527 -3 -8 -14 -91 -23 -185 -10 -93 -22 -178 -27 -187 -7 -14
-22 -18 -68 -18 -68 0 -66 -4 -75 115 -3 44 -10 89 -15 100 -5 11 -16 81 -24
155 -37 315 -61 506 -67 515 -4 6 -10 48 -14 95 -3 47 -9 93 -11 103 -5 14 1
17 34 17 36 0 40 -3 46 -31z m631 24 c58 -9 130 -85 144 -153 14 -64 14 -234
1 -297 -12 -55 -80 -143 -111 -143 -10 0 -19 -4 -19 -10 0 -6 -32 -10 -75 -10
l-75 0 0 -240 0 -240 -40 0 -40 0 0 550 0 550 88 0 c48 0 105 -3 127 -7z"/>
<path d="M3214 3430 c-57 -8 -148 -40 -209 -73 -71 -38 -203 -147 -205 -168 0
-3 18 -12 41 -19 43 -15 92 -58 115 -103 8 -15 18 -66 21 -112 l6 -84 -27 -7
c-46 -11 -56 0 -56 60 0 104 -36 156 -110 156 -88 0 -109 -49 -110 -252 0 -99
3 -128 13 -128 7 0 17 4 23 10 5 5 31 13 56 16 37 5 55 2 92 -17 100 -49 121
-117 114 -365 -4 -145 -7 -164 -27 -197 -32 -52 -73 -83 -130 -98 l-49 -12 51
-54 c54 -56 176 -140 237 -162 19 -8 51 -20 69 -29 71 -31 353 -26 396 8 6 4
28 13 50 20 40 13 125 64 173 103 92 76 180 198 228 317 14 36 30 74 35 85 4
11 13 47 18 80 5 33 15 93 22 132 9 54 9 86 1 125 -6 29 -16 89 -22 133 -7 44
-15 85 -20 90 -4 6 -13 28 -20 50 -21 64 -60 136 -109 200 -58 75 -131 155
-143 155 -5 0 -26 13 -46 29 -20 16 -47 32 -59 36 -13 3 -23 10 -23 13 0 4
-21 14 -47 21 -27 8 -53 18 -59 22 -29 23 -193 33 -290 19z m124 -269 c44 -22
73 -53 96 -100 14 -30 16 -85 16 -448 0 -403 -1 -415 -21 -456 -32 -62 -63
-88 -122 -102 -44 -10 -58 -10 -92 3 -50 19 -87 55 -111 107 -18 37 -19 70
-19 450 0 401 0 411 22 450 53 100 147 139 231 96z m284 3 c39 27 81 20 128
-22 41 -36 44 -42 48 -99 3 -43 0 -71 -11 -93 -14 -27 -14 -36 -1 -73 8 -23
18 -51 24 -62 39 -83 39 -428 -1 -470 -5 -5 -9 -15 -9 -23 0 -23 -61 -143
-101 -197 -20 -27 -58 -72 -84 -98 -45 -45 -49 -47 -66 -31 -11 9 -19 21 -19
27 0 5 23 35 52 66 128 140 198 310 201 486 1 62 -27 212 -50 264 -16 36 -20
39 -65 43 -28 3 -57 13 -69 24 -46 42 -75 144 -49 170 8 8 6 15 -5 24 -19 16
-19 30 1 58 15 22 17 22 34 7 17 -16 21 -16 42 -1z"/>
<path d="M3222 3073 c-7 -3 -24 -22 -38 -44 l-24 -39 0 -374 c0 -369 0 -375
22 -416 34 -62 92 -78 142 -39 54 42 56 60 56 454 0 389 -2 405 -54 447 -20
17 -76 23 -104 11z"/>
<path d="M3651 3103 c2 -4 20 -32 39 -61 31 -47 36 -51 47 -35 17 22 17 25
-10 64 -15 23 -32 35 -51 37 -15 2 -27 0 -25 -5z"/>
<path d="M3610 3012 c0 -20 46 -69 56 -59 5 5 -43 77 -52 77 -2 0 -4 -8 -4
-18z"/>
<path d="M2597 2743 c-11 -10 -8 -266 3 -283 6 -10 10 35 10 138 0 83 -1 152
-3 152 -2 0 -7 -3 -10 -7z"/>
<path d="M2727 2610 c-37 -29 -50 -100 -46 -255 3 -109 7 -136 24 -165 37 -63
124 -66 169 -7 19 25 21 45 24 175 4 171 0 201 -34 242 -21 25 -33 30 -69 30
-27 0 -51 -7 -68 -20z"/>
<path d="M1688 3064 c-5 -4 -8 -104 -8 -222 l0 -214 69 4 c116 6 141 46 141
217 0 121 -8 154 -47 191 -21 19 -40 25 -87 28 -34 2 -64 0 -68 -4z"/>
</g>
</svg>
